<svg width="16" height="16" xmlns="http://www.w3.org/2000/svg">

 <g>
  <title>background</title>
  <rect fill="none" id="canvas_background" height="18" width="18" y="-1" x="-1"/>
 </g>
 <g>
  <title>Layer 1</title>
  <path fill="#333333" id="svg_1" d="m14.133799,8.132425a6.133549,6.239299 0 0 1 -6.133549,6.239298a6.133549,6.239299 0 0 1 -6.133549,-6.239298a6.133549,6.239299 0 0 1 6.133549,-6.2393c0.582688,0 1.150041,0.085791 1.686727,0.241774l1.20371,-1.224464c-0.889365,-0.374358 -1.863066,-0.577134 -2.890436,-0.577134a7.666936,7.799124 0 0 0 -7.666936,7.799123a7.666936,7.799124 0 0 0 7.666936,7.799124a7.666936,7.799124 0 0 0 7.666935,-7.799124m-10.802711,-1.497432l-1.081039,1.107474l3.450122,3.509606l7.666934,-7.799124l-1.081038,-1.107475l-6.585897,6.699446l-2.369083,-2.409928z"/>
 </g>
</svg>