<svg width="20" height="20" xmlns="http://www.w3.org/2000/svg">
 <!-- Created with Method Draw - http://github.com/duopixel/Method-Draw/ -->
 <g>
  <title>background</title>
  <rect fill="none" id="canvas_background" height="22" width="22" y="-1" x="-1"/>
 </g>
 <g>
  <title>Layer 1</title>
  <path fill="#333333" id="svg_4" d="m10.481881,4.615493c-3.422246,0 -6.316713,2.237739 -7.314069,5.32796l1.839502,0c0.917016,-2.120679 3.016846,-3.606374 5.474566,-3.610741c3.299914,0.005231 5.969108,2.675265 5.974334,5.974233c-0.005226,3.299001 -2.674419,5.969045 -5.974334,5.97432c-2.457721,-0.003521 -4.55755,-1.490976 -5.474566,-3.612526l-1.839502,0c0.999102,3.091053 3.891823,5.329651 7.314069,5.330557c4.248344,-0.000906 7.693089,-3.443958 7.693089,-7.692351c-0.001766,-4.24836 -3.446485,-7.690534 -7.693089,-7.691452zm-2.373996,10.053246l4.0929,-2.361794l-4.0929,-2.363492l0,1.314545l-6.283585,0l0,2.09534l6.283585,0l0,1.315402z"/>
 </g>
</svg>