<svg width="20" height="20" xmlns="http://www.w3.org/2000/svg">
 <g>
  <title>background</title>
  <rect x="-1" y="-1" width="22" height="22" id="canvas_background" fill="none"/>
 </g>

 <g>
  <title>Layer 1</title>
  <g id="svg_1">
   <path d="m16.168419,11.25152c-0.587271,-1.647322 -1.780867,-2.967368 -3.360949,-3.716972c-1.580042,-0.749643 -3.357489,-0.839051 -5.004818,-0.251774c-1.647322,0.58727 -2.967408,1.780872 -3.717011,3.360954c-0.749557,1.580082 -0.838965,3.357491 -0.251735,5.004859c0.049431,0.138659 0.201945,0.210876 0.340518,0.16153c0.138659,-0.049431 0.210962,-0.201859 0.161524,-0.340512c-0.539485,-1.51324 -0.457362,-3.145997 0.231219,-4.597459s1.901186,-2.547932 3.414426,-3.08737c1.513239,-0.539444 3.146044,-0.457282 4.597458,0.231258c1.451508,0.688575 2.547932,1.901186 3.087418,3.414427c0.539436,1.51324 0.457315,3.145998 -0.23126,4.597458s-1.901192,2.547928 -3.414433,3.087372c-1.696089,0.604593 -3.556681,0.421612 -5.104603,-0.502045c-0.126491,-0.075459 -0.289979,-0.034109 -0.365386,0.092289c-0.075421,0.126396 -0.034111,0.289972 0.092287,0.365387c1.030691,0.61503 2.188497,0.928364 3.355003,0.928318c0.74054,0 1.48473,-0.12635 2.201641,-0.381908c1.647367,-0.587269 2.967367,-1.78087 3.716972,-3.360954c0.749603,-1.580128 0.839005,-3.357536 0.251728,-5.004858z" id="svg_2" stroke-width="0"/>
   <path d="m13.100914,13.450057c0,-0.14714 -0.119339,-0.266478 -0.266478,-0.266478l-6.636634,0c-0.147186,0 -0.266479,0.119338 -0.266479,0.266478s0.119292,0.266478 0.266479,0.266478l6.636634,0c0.147139,0 0.266478,-0.119338 0.266478,-0.266478z" id="svg_3" stroke-width="4"/>
   <path d="m10.9774,16.237284c-0.104111,0.104057 -0.104111,0.272779 0,0.376844c0.052006,0.052006 0.12022,0.07803 0.188396,0.07803s0.136391,-0.026024 0.188402,-0.07803l2.97567,-2.975675c0.104103,-0.104058 0.104103,-0.272781 0,-0.376845l-2.97567,-2.975669c-0.104017,-0.104058 -0.272833,-0.104058 -0.376799,0c-0.104111,0.104057 -0.104111,0.27278 0,0.376845l2.787226,2.787226l-2.787226,2.787273z" id="svg_4" stroke-width="4"/>
  </g>
  <g id="svg_5"/>
  <g id="svg_6"/>
  <g id="svg_7"/>
  <g id="svg_8"/>
  <g id="svg_9"/>
  <g id="svg_10"/>
  <g id="svg_11"/>
  <g id="svg_12"/>
  <g id="svg_13"/>
  <g id="svg_14"/>
  <g id="svg_15"/>
  <g id="svg_16"/>
  <g id="svg_17"/>
  <g id="svg_18"/>
  <g id="svg_19"/>
 </g>
</svg>